<svg xmlns="http://www.w3.org/2000/svg" viewBox="0 0 147 32"><g fill="#6E960A" fill-rule="evenodd"><path d="M9 21v4.25c1.765.463 3 1.52 3 2.75l-5 2-5-2c0-1.23 1.235-2.287 3-2.75V8.5C5 5.464 7.464 3 10.5 3a5.476 5.476 0 0 1 4.062 1.794c.496.493.908.906 1.438.906.53 0 .942-.412 1.436-.905A5.475 5.475 0 0 1 21.5 3C24.536 3 27 5.464 27 8.5v16.75c1.765.463 3 1.52 3 2.75l-5 2-5-2c0-1.23 1.235-2.287 3-2.75v-1.232l-.007.002v-3.012a.604.604 0 0 0-.6-.608c-.331 0-.6.273-.6.608l-.127 3.433a5.967 5.967 0 0 0-1.461.859c-.603.494-1.021 1.075-1.236 1.7H13.03c-.215-.625-.633-1.206-1.236-1.7a5.957 5.957 0 0 0-1.466-.861l-.13-3.44A.6.6 0 0 0 9 21Zm1.5-15.7a3.202 3.202 0 0 0-3.2 3.2c0 1.766 1.434 3.2 3.2 3.2 1.766 0 3.2-1.434 3.2-3.2 0-1.766-1.434-3.2-3.2-3.2Zm0 1.7A1.5 1.5 0 1 1 10.498 10 1.5 1.5 0 0 1 10.5 7Zm11-1.7a3.201 3.201 0 0 0-3.2 3.2c0 1.766 1.434 3.2 3.2 3.2 1.766 0 3.2-1.434 3.2-3.2 0-1.766-1.434-3.2-3.2-3.2Zm0 1.7a1.501 1.501 0 0 1 0 3 1.5 1.5 0 0 1 0-3ZM8.156 14.774s1.38 1.403 3.56 2.442c.627.299 1.322.56 2.067.747.7.177 1.446.272 2.217.287a9.18 9.18 0 0 0 1.343-.11c1.076-.174 2.07-.52 2.94-.931 2.18-1.034 3.56-2.435 3.56-2.435a.367.367 0 1 0-.487-.548s-1.436 1.101-3.544 1.847c-.474.168-.982.312-1.515.431A9.52 9.52 0 0 1 16 16.75a9.456 9.456 0 0 1-1.914-.174 12.62 12.62 0 0 1-1.895-.509c-2.108-.747-3.547-1.841-3.547-1.841a.367.367 0 0 0-.488.548Zm-5.088 9.953C1.31 23.676 0 19.717 0 15a2.001 2.001 0 0 1 4 0v9.31a6.982 6.982 0 0 0-.932.417ZM28 24.31V15a2.001 2.001 0 0 1 4 0c0 4.717-1.31 8.676-3.068 9.727A6.962 6.962 0 0 0 28 24.31Z"/><path fill-rule="nonzero" d="M43.167 16.18h4.585c1.002 0 1.744-.277 2.227-.829a2.842 2.842 0 0 0 .725-1.932c0-.736-.246-1.384-.738-1.945-.492-.56-1.23-.84-2.214-.84h-4.585v5.545Zm0 3.758v5.205h-4.111v-18.4h8.697c1.177 0 2.209.175 3.096.526.887.35 1.625.828 2.214 1.432a5.842 5.842 0 0 1 1.318 2.103c.29.797.434 1.643.434 2.537 0 .91-.149 1.765-.448 2.562a5.866 5.866 0 0 1-1.33 2.09c-.59.596-1.323 1.065-2.201 1.406-.879.342-1.906.522-3.084.54h-4.585Zm17.891-.052c.088.63.43 1.17 1.028 1.616.597.447 1.432.67 2.504.67.509 0 1.084-.07 1.726-.21a3.605 3.605 0 0 0 1.647-.815l2.135 2.366c-.703.684-1.564 1.174-2.583 1.472-1.02.298-2.02.447-3.005.447-1.177 0-2.218-.166-3.123-.5-.904-.332-1.669-.801-2.292-1.406a5.82 5.82 0 0 1-1.41-2.181c-.317-.85-.475-1.792-.475-2.826 0-.981.163-1.884.488-2.708a6.163 6.163 0 0 1 1.383-2.129 6.108 6.108 0 0 1 2.175-1.38c.852-.324 1.805-.486 2.86-.486 1.106 0 2.107.17 3.004.513.896.341 1.638.85 2.226 1.524.589.675 1.002 1.516 1.24 2.524.236 1.007.25 2.177.039 3.509h-9.567Zm6.167-2.76a1.783 1.783 0 0 0-.29-.92 2.184 2.184 0 0 0-.698-.657 3.188 3.188 0 0 0-.975-.382 5.35 5.35 0 0 0-1.147-.118c-.773 0-1.427.184-1.963.552-.536.368-.9.876-1.094 1.525h6.167Zm14.544 4.889c.984 0 1.761-.311 2.332-.933.571-.622.857-1.424.857-2.405 0-.947-.277-1.74-.83-2.38-.554-.639-1.34-.959-2.359-.959-.422 0-.843.057-1.265.171a3.13 3.13 0 0 0-1.133.565 2.825 2.825 0 0 0-.804 1.039c-.202.429-.303.95-.303 1.564 0 .543.101 1.025.303 1.445.202.42.47.771.804 1.052.334.28.707.49 1.12.63.413.14.839.21 1.278.21Zm-7.379 8.858V12.184h3.4l.237 1.656c.615-.789 1.282-1.301 2.003-1.538a7.389 7.389 0 0 1 2.319-.355c.949 0 1.818.163 2.609.487.79.324 1.471.78 2.042 1.367a6.002 6.002 0 0 1 1.318 2.116c.308.823.461 1.743.461 2.76 0 1.051-.158 1.993-.474 2.825a6.135 6.135 0 0 1-1.33 2.13 5.65 5.65 0 0 1-2.057 1.34c-.799.307-1.673.46-2.622.46-.685 0-1.397-.136-2.134-.407-.738-.272-1.388-.75-1.95-1.433v7.281H74.39Zm25.481-8.858c.984 0 1.761-.311 2.333-.933.57-.622.856-1.424.856-2.405 0-.947-.277-1.74-.83-2.38-.554-.639-1.34-.959-2.359-.959-.422 0-.843.057-1.265.171a3.13 3.13 0 0 0-1.133.565 2.825 2.825 0 0 0-.804 1.039c-.202.429-.303.95-.303 1.564 0 .543.101 1.025.303 1.445.202.42.47.771.804 1.052.334.28.707.49 1.12.63.413.14.839.21 1.278.21Zm-7.379 8.858V12.184h3.4l.237 1.656c.615-.789 1.282-1.301 2.003-1.538a7.389 7.389 0 0 1 2.319-.355c.949 0 1.818.163 2.609.487.79.324 1.471.78 2.042 1.367a6.002 6.002 0 0 1 1.318 2.116c.308.823.461 1.743.461 2.76 0 1.051-.158 1.993-.474 2.825a6.135 6.135 0 0 1-1.33 2.13 5.65 5.65 0 0 1-2.057 1.34c-.799.307-1.673.46-2.622.46-.685 0-1.397-.136-2.134-.407-.738-.272-1.388-.75-1.95-1.433v7.281h-3.822Zm21.212-10.987c.088.63.43 1.17 1.028 1.616.597.447 1.432.67 2.503.67.51 0 1.085-.07 1.726-.21a3.605 3.605 0 0 0 1.648-.815l2.134 2.366c-.702.684-1.563 1.174-2.582 1.472-1.02.298-2.02.447-3.005.447-1.177 0-2.218-.166-3.123-.5-.905-.332-1.669-.801-2.293-1.406a5.82 5.82 0 0 1-1.41-2.181c-.316-.85-.474-1.792-.474-2.826 0-.981.163-1.884.488-2.708a6.163 6.163 0 0 1 1.383-2.129 6.108 6.108 0 0 1 2.174-1.38c.853-.324 1.806-.486 2.86-.486 1.107 0 2.108.17 3.004.513.896.341 1.639.85 2.227 1.524.589.675 1.002 1.516 1.239 2.524.237 1.007.25 2.177.04 3.509h-9.567Zm6.167-2.76a1.783 1.783 0 0 0-.29-.92 2.184 2.184 0 0 0-.699-.657 3.188 3.188 0 0 0-.975-.382 5.35 5.35 0 0 0-1.146-.118c-.773 0-1.428.184-1.963.552-.536.368-.9.876-1.094 1.525h6.167Zm10.696-4.942.29 1.42c.44-.614.944-1.056 1.515-1.328s1.226-.407 1.964-.407c1.23 0 2.293.394 3.189 1.182l-1.582 2.997a3.501 3.501 0 0 0-2.082-.657c-.808 0-1.515.254-2.121.762-.606.508-.91 1.253-.91 2.234v6.756h-3.794V12.184h3.531Zm13.464-.053v13.012h-3.795V12.13h3.795Zm-4.059-3.417c0 .701.224 1.231.672 1.59a2.324 2.324 0 0 0 2.978 0c.448-.359.672-.889.672-1.59 0-.718-.224-1.253-.672-1.603a2.36 2.36 0 0 0-1.489-.526 2.36 2.36 0 0 0-1.489.526c-.448.35-.672.885-.672 1.603Z"/></g></svg>