<svg xmlns="http://www.w3.org/2000/svg" viewBox="0 0 256 256"><path fill="#83B30C" fill-rule="evenodd" d="M66 193.177c10.503 2.156 19.915 7.08 27.334 13.922a1.974 1.974 0 0 1-1.68 3.364 45.03 45.03 0 0 0-6.493-.476c-11.764 0-22.354 4.777-29.71 12.386a1.991 1.991 0 0 1-2.901 0c-7.356-7.61-17.947-12.386-29.71-12.386-2.21 0-4.378.168-6.492.492a1.99 1.99 0 0 1-1.693-3.392c7.427-6.833 16.842-11.755 27.345-13.91V69.992C42 47.92 59.924 30 82 30c13.376 0 25.227 6.578 32.491 16.672a39.981 39.981 0 0 1 3.955 6.827l5.201 8.979a5.03 5.03 0 0 0 8.706 0l5.201-8.979a39.981 39.981 0 0 1 3.955-6.827C148.773 36.578 160.624 30 174 30c22.077 0 40 17.92 40 39.992v123.185c10.502 2.156 19.914 7.08 27.334 13.922a1.974 1.974 0 0 1-1.68 3.364 45.039 45.039 0 0 0-6.494-.476c-11.764 0-22.354 4.777-29.709 12.386a1.991 1.991 0 0 1-2.901 0c-7.356-7.61-17.947-12.386-29.71-12.386-2.21 0-4.378.168-6.491.492a1.99 1.99 0 0 1-1.694-3.392c7.427-6.833 16.842-11.755 27.345-13.91v-40.203a3.001 3.001 0 0 0-6 0v35.503c-8.576 2.456-16.368 6.618-22.94 12.061a160.453 160.453 0 0 1-33.06 3.425c-11.332 0-22.391-1.18-33.06-3.425-6.571-5.443-14.364-9.605-22.94-12.06v-35.504a3.001 3.001 0 0 0-6 0v40.203Zm16-99.19c13.246 0 24-10.752 24-23.995 0-13.244-10.754-23.995-24-23.995S58 56.748 58 69.992c0 13.243 10.754 23.994 24 23.994Zm0-37.992c7.732 0 14 6.266 14 13.997 0 7.73-6.268 13.997-14 13.997s-14-6.267-14-13.997c0-7.73 6.268-13.997 14-13.997Zm0 9.997a4 4 0 1 0 0 8 4 4 0 0 0 0-8Zm92 27.994c13.246 0 24-10.751 24-23.994 0-13.244-10.754-23.995-24-23.995s-24 10.751-24 23.995c0 13.243 10.754 23.994 24 23.994Zm0-37.991c7.732 0 14 6.266 14 13.997 0 7.73-6.268 13.997-14 13.997s-14-6.267-14-13.997c0-7.73 6.268-13.997 14-13.997Zm0 9.997a4 4 0 1 0 0 8 4 4 0 0 0 0-8ZM66.443 115.16c5.218 8.164 13.61 17.445 26.24 24.22 5.036 2.703 10.746 4.917 17.155 6.455 5.53 1.327 11.594 1.986 18.162 2.138 3.822-.078 7.473-.299 10.938-.821 9.386-1.416 17.47-4.234 24.328-7.886 12.632-6.728 21.05-15.972 26.291-24.106a1.953 1.953 0 0 0-3.114-2.355c-5.832 6.611-14.723 13.609-26.931 18.19-3.796 1.425-7.91 2.531-12.366 3.413A84.26 84.26 0 0 1 128 135.98c-5.75.134-11.054-.34-15.972-1.124-5.678-.905-10.82-2.221-15.487-3.975-12.202-4.584-21.13-11.487-26.984-18.075a1.953 1.953 0 0 0-3.114 2.355Zm-33.486 74.27a2 2 0 0 1-2.237-.678c-20.289-26.808-43.049-78.769-10.011-78.769 4.184 0 9.047 1.453 14.108 3.713a1.998 1.998 0 0 1 1.181 1.823c.002 8.94.002 61.88.002 71.47a2 2 0 0 1-1.408 1.909c-.548.17-1.093.348-1.635.533Zm190.085 0a62.372 62.372 0 0 0-1.634-.532 1.998 1.998 0 0 1-1.408-1.91c0-9.589 0-62.53.002-71.47 0-.787.462-1.5 1.18-1.822 5.062-2.26 9.926-3.713 14.11-3.713 33.036 0 10.276 51.96-10.012 78.77a2 2 0 0 1-2.238.678Z"/></svg>