<svg xmlns="http://www.w3.org/2000/svg" viewBox="0 0 32 32"><path fill="#83B30C" fill-rule="evenodd" d="M9 21v4.25c1.765.463 3 1.52 3 2.75l-5 2-5-2c0-1.23 1.235-2.287 3-2.75V8.5C5 5.464 7.464 3 10.5 3a5.476 5.476 0 0 1 4.062 1.794c.496.493.908.906 1.438.906.53 0 .942-.412 1.436-.905A5.475 5.475 0 0 1 21.5 3C24.536 3 27 5.464 27 8.5v16.75c1.765.463 3 1.52 3 2.75l-5 2-5-2c0-1.23 1.235-2.287 3-2.75v-1.232l-.007.002v-3.012a.604.604 0 0 0-.6-.608c-.331 0-.6.273-.6.608l-.127 3.433a5.967 5.967 0 0 0-1.461.859c-.603.494-1.021 1.075-1.236 1.7H13.03c-.215-.625-.633-1.206-1.236-1.7a5.957 5.957 0 0 0-1.466-.861l-.13-3.44A.6.6 0 0 0 9 21Zm1.5-15.7a3.202 3.202 0 0 0-3.2 3.2c0 1.766 1.434 3.2 3.2 3.2 1.766 0 3.2-1.434 3.2-3.2 0-1.766-1.434-3.2-3.2-3.2Zm0 1.7A1.5 1.5 0 1 1 10.498 10 1.5 1.5 0 0 1 10.5 7Zm11-1.7a3.201 3.201 0 0 0-3.2 3.2c0 1.766 1.434 3.2 3.2 3.2 1.766 0 3.2-1.434 3.2-3.2 0-1.766-1.434-3.2-3.2-3.2Zm0 1.7a1.501 1.501 0 0 1 0 3 1.5 1.5 0 0 1 0-3ZM8.156 14.774s1.38 1.403 3.56 2.442c.627.299 1.322.56 2.067.747.7.177 1.446.272 2.217.287a9.18 9.18 0 0 0 1.343-.11c1.076-.174 2.07-.52 2.94-.931 2.18-1.034 3.56-2.435 3.56-2.435a.367.367 0 1 0-.487-.548s-1.436 1.101-3.544 1.847c-.474.168-.982.312-1.515.431A9.52 9.52 0 0 1 16 16.75a9.456 9.456 0 0 1-1.914-.174 12.62 12.62 0 0 1-1.895-.509c-2.108-.747-3.547-1.841-3.547-1.841a.367.367 0 0 0-.488.548Zm-5.088 9.953C1.31 23.676 0 19.717 0 15a2.001 2.001 0 0 1 4 0v9.31a6.982 6.982 0 0 0-.932.417ZM28 24.31V15a2.001 2.001 0 0 1 4 0c0 4.717-1.31 8.676-3.068 9.727A6.962 6.962 0 0 0 28 24.31Z"/></svg>