<svg xmlns="http://www.w3.org/2000/svg" viewBox="0 0 640 527"><g fill="#83B30C" fill-rule="evenodd"><path d="M223.125 301.84c16.41 3.367 31.117 11.062 42.709 21.752a3.084 3.084 0 0 1-2.624 5.257 70.359 70.359 0 0 0-10.146-.745c-18.381 0-34.929 7.464-46.422 19.353a3.111 3.111 0 0 1-4.533 0c-11.494-11.889-28.042-19.353-46.423-19.353-3.452 0-6.84.263-10.142.77a3.109 3.109 0 0 1-2.645-5.3c11.605-10.677 26.315-18.368 42.726-21.735V109.362c0-34.488 28.005-62.487 62.5-62.487 20.9 0 39.417 10.278 50.767 26.05a62.47 62.47 0 0 1 6.18 10.668L313.2 97.62a7.86 7.86 0 0 0 13.603 0l8.126-14.028a62.47 62.47 0 0 1 6.18-10.668c11.35-15.772 29.868-26.05 50.767-26.05 34.495 0 62.5 28 62.5 62.487V301.84c16.41 3.367 31.116 11.062 42.71 21.752a3.085 3.085 0 0 1-2.625 5.257 70.373 70.373 0 0 0-10.147-.745c-18.381 0-34.928 7.464-46.42 19.353a3.111 3.111 0 0 1-4.534 0c-11.494-11.889-28.041-19.353-46.422-19.353-3.453 0-6.84.263-10.142.77a3.109 3.109 0 0 1-2.646-5.3c11.605-10.677 26.315-18.368 42.726-21.735v-62.817a4.69 4.69 0 0 0-4.687-4.687 4.69 4.69 0 0 0-4.688 4.687v55.474c-13.4 3.837-25.576 10.34-35.843 18.845A250.707 250.707 0 0 1 320 318.693a250.71 250.71 0 0 1-51.656-5.352c-10.268-8.506-22.444-15.008-35.844-18.845v-55.474a4.69 4.69 0 0 0-4.687-4.687 4.69 4.69 0 0 0-4.688 4.687v62.818Zm25-154.986c20.697 0 37.5-16.8 37.5-37.492 0-20.693-16.803-37.492-37.5-37.492s-37.5 16.8-37.5 37.492c0 20.692 16.803 37.492 37.5 37.492Zm0-59.363c12.081 0 21.875 9.792 21.875 21.87 0 12.08-9.794 21.871-21.875 21.871s-21.875-9.792-21.875-21.87c0-12.079 9.794-21.87 21.875-21.87Zm0 15.622a6.25 6.25 0 1 0 0 12.497 6.25 6.25 0 1 0 0-12.497Zm143.75 43.74c20.697 0 37.5-16.799 37.5-37.491 0-20.693-16.803-37.492-37.5-37.492s-37.5 16.8-37.5 37.492c0 20.692 16.803 37.492 37.5 37.492Zm0-59.362c12.082 0 21.875 9.792 21.875 21.87 0 12.08-9.793 21.871-21.875 21.871-12.08 0-21.875-9.792-21.875-21.87 0-12.079 9.794-21.87 21.875-21.87Zm0 15.622a6.25 6.25 0 1 0 0 12.497 6.25 6.25 0 1 0 0-12.497Zm-168.058 76.824c8.153 12.757 21.266 27.258 41 37.846 7.87 4.222 16.79 7.681 26.805 10.085 8.641 2.073 18.115 3.102 28.378 3.34 5.971-.122 11.676-.467 17.09-1.284 14.667-2.212 27.297-6.614 38.013-12.321 19.737-10.512 32.892-24.956 41.08-37.666a3.051 3.051 0 0 0-4.866-3.68c-9.113 10.33-23.004 21.265-42.08 28.423-5.931 2.226-12.358 3.955-19.322 5.333-9.04 1.79-18.964 2.8-29.915 2.454-8.985.21-17.273-.53-24.956-1.756-8.872-1.415-16.906-3.471-24.2-6.211-19.065-7.163-33.013-17.95-42.16-28.243a3.051 3.051 0 0 0-4.866 3.68Zm-52.321 116.049a3.124 3.124 0 0 1-3.496-1.06c-31.701-41.889-67.263-123.077-15.643-123.077 6.538 0 14.137 2.27 22.045 5.8a3.122 3.122 0 0 1 1.845 2.849c.003 13.968.003 96.689.003 111.671 0 1.37-.892 2.579-2.2 2.984-.857.267-1.708.544-2.554.833Zm297.008 0a97.45 97.45 0 0 0-2.554-.833 3.122 3.122 0 0 1-2.2-2.984c0-14.982 0-97.703.004-111.671 0-1.23.721-2.345 1.843-2.849 7.91-3.53 15.51-5.8 22.047-5.8 51.62 0 16.057 81.188-15.644 123.077a3.125 3.125 0 0 1-3.496 1.06ZM22.864 476.824h25.502c5.57 0 9.698-1.545 12.385-4.635 2.687-3.09 4.03-6.695 4.03-10.815 0-4.12-1.367-7.75-4.103-10.888-2.736-3.14-6.84-4.709-12.312-4.709H22.864v31.047Zm0 21.042V527H0V424h48.366c6.547 0 12.287.981 17.222 2.943 4.934 1.962 9.038 4.635 12.311 8.02 3.273 3.383 5.716 7.307 7.328 11.77 1.613 4.464 2.419 9.197 2.419 14.2 0 5.1-.83 9.883-2.492 14.346-1.66 4.464-4.128 8.363-7.401 11.698-3.274 3.335-7.353 5.96-12.239 7.872-4.885 1.913-10.601 2.919-17.148 3.017H22.864ZM182.4 527h-78.12V424h76.068v21.041h-53.643v19.865h50.565v20.158h-50.565v20.747H182.4V527Zm42.724-50.176h25.502c5.57 0 9.698-1.545 12.385-4.635 2.687-3.09 4.03-6.695 4.03-10.815 0-4.12-1.368-7.75-4.104-10.888-2.736-3.14-6.84-4.709-12.311-4.709h-25.502v31.047Zm0 21.042V527h-22.865V424h48.367c6.546 0 12.287.981 17.221 2.943 4.935 1.962 9.038 4.635 12.312 8.02 3.273 3.383 5.716 7.307 7.328 11.77 1.612 4.464 2.418 9.197 2.418 14.2 0 5.1-.83 9.883-2.491 14.346-1.661 4.464-4.129 8.363-7.402 11.698-3.273 3.335-7.353 5.96-12.238 7.872-4.885 1.913-10.602 2.919-17.148 3.017h-25.502Zm104.28-21.042h25.503c5.57 0 9.698-1.545 12.385-4.635 2.687-3.09 4.03-6.695 4.03-10.815 0-4.12-1.368-7.75-4.104-10.888-2.736-3.14-6.84-4.709-12.311-4.709h-25.502v31.047Zm0 21.042V527H306.54V424h48.367c6.546 0 12.287.981 17.221 2.943 4.935 1.962 9.038 4.635 12.312 8.02 3.273 3.383 5.716 7.307 7.328 11.77 1.612 4.464 2.418 9.197 2.418 14.2 0 5.1-.83 9.883-2.491 14.346-1.661 4.464-4.129 8.363-7.402 11.698-3.273 3.335-7.353 5.96-12.238 7.872-4.886 1.913-10.602 2.919-17.148 3.017h-25.502ZM488.94 527h-78.119V424h76.068v21.041h-53.643v19.865h50.565v20.158h-50.565v20.747h55.694V527Zm110.877 0H574.46l-26.235-33.843h-16.562V527H508.8V424h48.66c6.155 0 11.603.956 16.341 2.87 4.74 1.912 8.721 4.487 11.946 7.724 3.224 3.237 5.642 6.94 7.254 11.11a35.795 35.795 0 0 1 2.419 13.022c0 3.335-.318 6.572-.953 9.711a25.695 25.695 0 0 1-3.59 8.829c-1.76 2.746-4.178 5.297-7.256 7.651-3.078 2.354-7.06 4.414-11.945 6.18l28.14 34.137V527Zm-68.153-83.283v30.017h26.089c2.638 0 4.91-.441 6.815-1.324 1.905-.883 3.469-2.035 4.69-3.458a14.244 14.244 0 0 0 2.711-4.708c.587-1.717.88-3.36.88-4.93 0-1.765-.318-3.58-.953-5.444a15.674 15.674 0 0 0-2.785-5.003c-1.221-1.471-2.809-2.697-4.763-3.678-1.954-.981-4.25-1.472-6.889-1.472h-25.795ZM616.892 527V424h22.717v103h-22.717Z"/></g></svg>