<svg xmlns="http://www.w3.org/2000/svg" viewBox="0 0 1268 256"><g fill="#FFF" fill-rule="evenodd"><path d="M66 193.177c10.503 2.156 19.915 7.08 27.334 13.922a1.974 1.974 0 0 1-1.68 3.364 45.03 45.03 0 0 0-6.493-.476c-11.764 0-22.354 4.777-29.71 12.386a1.991 1.991 0 0 1-2.901 0c-7.356-7.61-17.947-12.386-29.71-12.386-2.21 0-4.378.168-6.492.492a1.99 1.99 0 0 1-1.693-3.392c7.427-6.833 16.842-11.755 27.345-13.91V69.992C42 47.92 59.924 30 82 30c13.376 0 25.227 6.578 32.491 16.672a39.981 39.981 0 0 1 3.955 6.827l5.201 8.979a5.03 5.03 0 0 0 8.706 0l5.201-8.979a39.981 39.981 0 0 1 3.955-6.827C148.773 36.578 160.624 30 174 30c22.077 0 40 17.92 40 39.992v123.185c10.502 2.156 19.914 7.08 27.334 13.922a1.974 1.974 0 0 1-1.68 3.364 45.039 45.039 0 0 0-6.494-.476c-11.764 0-22.354 4.777-29.709 12.386a1.991 1.991 0 0 1-2.901 0c-7.356-7.61-17.947-12.386-29.71-12.386-2.21 0-4.378.168-6.491.492a1.99 1.99 0 0 1-1.694-3.392c7.427-6.833 16.842-11.755 27.345-13.91v-40.203a3.001 3.001 0 0 0-6 0v35.503c-8.576 2.456-16.368 6.618-22.94 12.061a160.453 160.453 0 0 1-33.06 3.425c-11.332 0-22.391-1.18-33.06-3.425-6.571-5.443-14.364-9.605-22.94-12.06v-35.504a3.001 3.001 0 0 0-6 0v40.203Zm16-99.19c13.246 0 24-10.752 24-23.995 0-13.244-10.754-23.995-24-23.995S58 56.748 58 69.992c0 13.243 10.754 23.994 24 23.994Zm0-37.992c7.732 0 14 6.266 14 13.997 0 7.73-6.268 13.997-14 13.997s-14-6.267-14-13.997c0-7.73 6.268-13.997 14-13.997Zm0 9.997a4 4 0 1 0 0 8 4 4 0 0 0 0-8Zm92 27.994c13.246 0 24-10.751 24-23.994 0-13.244-10.754-23.995-24-23.995s-24 10.751-24 23.995c0 13.243 10.754 23.994 24 23.994Zm0-37.991c7.732 0 14 6.266 14 13.997 0 7.73-6.268 13.997-14 13.997s-14-6.267-14-13.997c0-7.73 6.268-13.997 14-13.997Zm0 9.997a4 4 0 1 0 0 8 4 4 0 0 0 0-8ZM66.443 115.16c5.218 8.164 13.61 17.445 26.24 24.22 5.036 2.703 10.746 4.917 17.155 6.455 5.53 1.327 11.594 1.986 18.162 2.138 3.822-.078 7.473-.299 10.938-.821 9.386-1.416 17.47-4.234 24.328-7.886 12.632-6.728 21.05-15.972 26.291-24.106a1.953 1.953 0 0 0-3.114-2.355c-5.832 6.611-14.723 13.609-26.931 18.19-3.796 1.425-7.91 2.531-12.366 3.413A84.26 84.26 0 0 1 128 135.98c-5.75.134-11.054-.34-15.972-1.124-5.678-.905-10.82-2.221-15.487-3.975-12.202-4.584-21.13-11.487-26.984-18.075a1.953 1.953 0 0 0-3.114 2.355Zm-33.486 74.27a2 2 0 0 1-2.237-.678c-20.289-26.808-43.049-78.769-10.011-78.769 4.184 0 9.047 1.453 14.108 3.713a1.998 1.998 0 0 1 1.181 1.823c.002 8.94.002 61.88.002 71.47a2 2 0 0 1-1.408 1.909c-.548.17-1.093.348-1.635.533Zm190.085 0a62.372 62.372 0 0 0-1.634-.532 1.998 1.998 0 0 1-1.408-1.91c0-9.589 0-62.53.002-71.47 0-.787.462-1.5 1.18-1.822 5.062-2.26 9.926-3.713 14.11-3.713 33.036 0 10.276 51.96-10.012 78.77a2 2 0 0 1-2.238.678Z"/><path fill-rule="nonzero" d="M342.16 121.16h41.76c9.12 0 15.88-2.52 20.28-7.56 4.4-5.04 6.6-10.92 6.6-17.64 0-6.72-2.24-12.64-6.72-17.76-4.48-5.12-11.2-7.68-20.16-7.68h-41.76v50.64Zm0 34.32V203h-37.44V35h79.2c10.72 0 20.12 1.6 28.2 4.8 8.08 3.2 14.8 7.56 20.16 13.08 5.36 5.52 9.36 11.92 12 19.2 2.64 7.28 3.96 15 3.96 23.16 0 8.32-1.36 16.12-4.08 23.4-2.72 7.28-6.76 13.64-12.12 19.08-5.36 5.44-12.04 9.72-20.04 12.84-8 3.12-17.36 4.76-28.08 4.92h-41.76Zm163.68-.48c.8 5.76 3.92 10.68 9.36 14.76 5.44 4.08 13.04 6.12 22.8 6.12 4.64 0 9.88-.64 15.72-1.92 5.84-1.28 10.84-3.76 15-7.44l19.44 21.6c-6.4 6.24-14.24 10.72-23.52 13.44-9.28 2.72-18.4 4.08-27.36 4.08-10.72 0-20.2-1.52-28.44-4.56-8.24-3.04-15.2-7.32-20.88-12.84s-9.96-12.16-12.84-19.92c-2.88-7.76-4.32-16.36-4.32-25.8 0-8.96 1.48-17.2 4.44-24.72 2.96-7.52 7.16-14 12.6-19.44 5.44-5.44 12.04-9.64 19.8-12.6 7.76-2.96 16.44-4.44 26.04-4.44 10.08 0 19.2 1.56 27.36 4.68 8.16 3.12 14.92 7.76 20.28 13.92 5.36 6.16 9.12 13.84 11.28 23.04s2.28 19.88.36 32.04h-87.12ZM562 129.8c-.16-3.2-1.04-6-2.64-8.4-1.6-2.4-3.72-4.4-6.36-6-2.64-1.6-5.6-2.76-8.88-3.48-3.28-.72-6.76-1.08-10.44-1.08-7.04 0-13 1.68-17.88 5.04-4.88 3.36-8.2 8-9.96 13.92H562Zm133.2 44.64c8.96 0 16.04-2.84 21.24-8.52 5.2-5.68 7.8-13 7.8-21.96 0-8.64-2.52-15.88-7.56-21.72-5.04-5.84-12.2-8.76-21.48-8.76-3.84 0-7.68.52-11.52 1.56s-7.28 2.76-10.32 5.16c-3.04 2.4-5.48 5.56-7.32 9.48-1.84 3.92-2.76 8.68-2.76 14.28 0 4.96.92 9.36 2.76 13.2 1.84 3.84 4.28 7.04 7.32 9.6a31.42 31.42 0 0 0 10.2 5.76c3.76 1.28 7.64 1.92 11.64 1.92ZM628 255.32V84.68h30.96l2.16 15.12c5.6-7.2 11.68-11.88 18.24-14.04 6.56-2.16 13.6-3.24 21.12-3.24 8.64 0 16.56 1.48 23.76 4.44 7.2 2.96 13.4 7.12 18.6 12.48 5.2 5.36 9.2 11.8 12 19.32 2.8 7.52 4.2 15.92 4.2 25.2 0 9.6-1.44 18.2-4.32 25.8-2.88 7.6-6.92 14.08-12.12 19.44-5.2 5.36-11.44 9.44-18.72 12.24-7.28 2.8-15.24 4.2-23.88 4.2-6.24 0-12.72-1.24-19.44-3.72-6.72-2.48-12.64-6.84-17.76-13.08v66.48H628Zm232.8-80.88c8.96 0 16.04-2.84 21.24-8.52 5.2-5.68 7.8-13 7.8-21.96 0-8.64-2.52-15.88-7.56-21.72-5.04-5.84-12.2-8.76-21.48-8.76-3.84 0-7.68.52-11.52 1.56s-7.28 2.76-10.32 5.16c-3.04 2.4-5.48 5.56-7.32 9.48-1.84 3.92-2.76 8.68-2.76 14.28 0 4.96.92 9.36 2.76 13.2 1.84 3.84 4.28 7.04 7.32 9.6a31.42 31.42 0 0 0 10.2 5.76c3.76 1.28 7.64 1.92 11.64 1.92Zm-67.2 80.88V84.68h30.96l2.16 15.12c5.6-7.2 11.68-11.88 18.24-14.04 6.56-2.16 13.6-3.24 21.12-3.24 8.64 0 16.56 1.48 23.76 4.44 7.2 2.96 13.4 7.12 18.6 12.48 5.2 5.36 9.2 11.8 12 19.32 2.8 7.52 4.2 15.92 4.2 25.2 0 9.6-1.44 18.2-4.32 25.8-2.88 7.6-6.92 14.08-12.12 19.44-5.2 5.36-11.44 9.44-18.72 12.24-7.28 2.8-15.24 4.2-23.88 4.2-6.24 0-12.72-1.24-19.44-3.72-6.72-2.48-12.64-6.84-17.76-13.08v66.48h-34.8ZM987.52 155c.8 5.76 3.92 10.68 9.36 14.76 5.44 4.08 13.04 6.12 22.8 6.12 4.64 0 9.88-.64 15.72-1.92 5.84-1.28 10.84-3.76 15-7.44l19.44 21.6c-6.4 6.24-14.24 10.72-23.52 13.44-9.28 2.72-18.4 4.08-27.36 4.08-10.72 0-20.2-1.52-28.44-4.56-8.24-3.04-15.2-7.32-20.88-12.84s-9.96-12.16-12.84-19.92c-2.88-7.76-4.32-16.36-4.32-25.8 0-8.96 1.48-17.2 4.44-24.72 2.96-7.52 7.16-14 12.6-19.44 5.44-5.44 12.04-9.64 19.8-12.6 7.76-2.96 16.44-4.44 26.04-4.44 10.08 0 19.2 1.56 27.36 4.68 8.16 3.12 14.92 7.76 20.28 13.92 5.36 6.16 9.12 13.84 11.28 23.04s2.28 19.88.36 32.04h-87.12Zm56.16-25.2c-.16-3.2-1.04-6-2.64-8.4-1.6-2.4-3.72-4.4-6.36-6-2.64-1.6-5.6-2.76-8.88-3.48-3.28-.72-6.76-1.08-10.44-1.08-7.04 0-13 1.68-17.88 5.04-4.88 3.36-8.2 8-9.96 13.92h56.16Zm98.16-45.12 2.64 12.96c4-5.6 8.6-9.64 13.8-12.12 5.2-2.48 11.16-3.72 17.88-3.72 11.2 0 20.88 3.6 29.04 10.8l-14.4 27.36c-5.6-4-11.92-6-18.96-6-7.36 0-13.8 2.32-19.32 6.96-5.52 4.64-8.28 11.44-8.28 20.4V203h-34.56V84.68h32.16Zm123.36-.48V203h-34.56V84.2h34.56ZM1228.24 53c0 6.4 2.04 11.24 6.12 14.52 4.08 3.28 8.6 4.92 13.56 4.92 4.96 0 9.48-1.64 13.56-4.92 4.08-3.28 6.12-8.12 6.12-14.52 0-6.56-2.04-11.44-6.12-14.64-4.08-3.2-8.6-4.8-13.56-4.8-4.96 0-9.48 1.6-13.56 4.8-4.08 3.2-6.12 8.08-6.12 14.64Z"/></g></svg>