<svg xmlns="http://www.w3.org/2000/svg" viewBox="0 0 1048 168"><path fill="#83B30C" fill-rule="evenodd" d="M37.44 86.16H79.2c9.12 0 15.88-2.52 20.28-7.56 4.4-5.04 6.6-10.92 6.6-17.64 0-6.72-2.24-12.64-6.72-17.76-4.48-5.12-11.2-7.68-20.16-7.68H37.44v50.64Zm0 34.32V168H0V0h79.2c10.72 0 20.12 1.6 28.2 4.8 8.08 3.2 14.8 7.56 20.16 13.08 5.36 5.52 9.36 11.92 12 19.2 2.64 7.28 3.96 15 3.96 23.16 0 8.32-1.36 16.12-4.08 23.4-2.72 7.28-6.76 13.64-12.12 19.08-5.36 5.44-12.04 9.72-20.04 12.84-8 3.12-17.36 4.76-28.08 4.92H37.44ZM298.68 168H170.76V0h124.56v34.32h-87.84v32.4h82.8V99.6h-82.8v33.84h91.2V168Zm69.96-81.84h41.76c9.12 0 15.88-2.52 20.28-7.56 4.4-5.04 6.6-10.92 6.6-17.64 0-6.72-2.24-12.64-6.72-17.76-4.48-5.12-11.2-7.68-20.16-7.68h-41.76v50.64Zm0 34.32V168H331.2V0h79.2c10.72 0 20.12 1.6 28.2 4.8 8.08 3.2 14.8 7.56 20.16 13.08 5.36 5.52 9.36 11.92 12 19.2 2.64 7.28 3.96 15 3.96 23.16 0 8.32-1.36 16.12-4.08 23.4-2.72 7.28-6.76 13.64-12.12 19.08-5.36 5.44-12.04 9.72-20.04 12.84-8 3.12-17.36 4.76-28.08 4.92h-41.76ZM539.4 86.16h41.76c9.12 0 15.88-2.52 20.28-7.56 4.4-5.04 6.6-10.92 6.6-17.64 0-6.72-2.24-12.64-6.72-17.76-4.48-5.12-11.2-7.68-20.16-7.68H539.4v50.64Zm0 34.32V168h-37.44V0h79.2c10.72 0 20.12 1.6 28.2 4.8 8.08 3.2 14.8 7.56 20.16 13.08 5.36 5.52 9.36 11.92 12 19.2 2.64 7.28 3.96 15 3.96 23.16 0 8.32-1.36 16.12-4.08 23.4-2.72 7.28-6.76 13.64-12.12 19.08-5.36 5.44-12.04 9.72-20.04 12.84-8 3.12-17.36 4.76-28.08 4.92H539.4ZM800.64 168H672.72V0h124.56v34.32h-87.84v32.4h82.8V99.6h-82.8v33.84h91.2V168Zm181.56 0h-41.52l-42.96-55.2H870.6V168h-37.44V0h79.68c10.08 0 19 1.56 26.76 4.68 7.76 3.12 14.28 7.32 19.56 12.6 5.28 5.28 9.24 11.32 11.88 18.12 2.64 6.8 3.96 13.88 3.96 21.24 0 5.44-.52 10.72-1.56 15.84-1.04 5.12-3 9.92-5.88 14.4s-6.84 8.64-11.88 12.48c-5.04 3.84-11.56 7.2-19.56 10.08l46.08 55.68V168ZM870.6 32.16v48.96h42.72c4.32 0 8.04-.72 11.16-2.16 3.12-1.44 5.68-3.32 7.68-5.64s3.48-4.88 4.44-7.68c.96-2.8 1.44-5.48 1.44-8.04 0-2.88-.52-5.84-1.56-8.88-1.04-3.04-2.56-5.76-4.56-8.16-2-2.4-4.6-4.4-7.8-6-3.2-1.6-6.96-2.4-11.28-2.4H870.6ZM1010.16 168V0h37.2v168h-37.2Z"/></svg>