<svg xmlns="http://www.w3.org/2000/svg" viewBox="0 0 640 554"><g fill="#6E960A" fill-rule="evenodd"><path d="M223.125 301.84c16.41 3.367 31.117 11.062 42.709 21.752a3.084 3.084 0 0 1-2.624 5.257 70.359 70.359 0 0 0-10.146-.745c-18.381 0-34.929 7.464-46.422 19.353a3.111 3.111 0 0 1-4.533 0c-11.494-11.889-28.042-19.353-46.423-19.353-3.452 0-6.84.263-10.142.77a3.109 3.109 0 0 1-2.645-5.3c11.605-10.677 26.315-18.368 42.726-21.735V109.362c0-34.488 28.005-62.487 62.5-62.487 20.9 0 39.417 10.278 50.767 26.05a62.47 62.47 0 0 1 6.18 10.668L313.2 97.62a7.86 7.86 0 0 0 13.603 0l8.126-14.028a62.47 62.47 0 0 1 6.18-10.668c11.35-15.772 29.868-26.05 50.767-26.05 34.495 0 62.5 28 62.5 62.487V301.84c16.41 3.367 31.116 11.062 42.71 21.752a3.085 3.085 0 0 1-2.625 5.257 70.373 70.373 0 0 0-10.147-.745c-18.381 0-34.928 7.464-46.42 19.353a3.111 3.111 0 0 1-4.534 0c-11.494-11.889-28.041-19.353-46.422-19.353-3.453 0-6.84.263-10.142.77a3.109 3.109 0 0 1-2.646-5.3c11.605-10.677 26.315-18.368 42.726-21.735v-62.817a4.69 4.69 0 0 0-4.687-4.687 4.69 4.69 0 0 0-4.688 4.687v55.474c-13.4 3.837-25.576 10.34-35.843 18.845A250.707 250.707 0 0 1 320 318.693a250.71 250.71 0 0 1-51.656-5.352c-10.268-8.506-22.444-15.008-35.844-18.845v-55.474a4.69 4.69 0 0 0-4.687-4.687 4.69 4.69 0 0 0-4.688 4.687v62.818Zm25-154.986c20.697 0 37.5-16.8 37.5-37.492 0-20.693-16.803-37.492-37.5-37.492s-37.5 16.8-37.5 37.492c0 20.692 16.803 37.492 37.5 37.492Zm0-59.363c12.081 0 21.875 9.792 21.875 21.87 0 12.08-9.794 21.871-21.875 21.871s-21.875-9.792-21.875-21.87c0-12.079 9.794-21.87 21.875-21.87Zm0 15.622a6.25 6.25 0 1 0 0 12.497 6.25 6.25 0 1 0 0-12.497Zm143.75 43.74c20.697 0 37.5-16.799 37.5-37.491 0-20.693-16.803-37.492-37.5-37.492s-37.5 16.8-37.5 37.492c0 20.692 16.803 37.492 37.5 37.492Zm0-59.362c12.082 0 21.875 9.792 21.875 21.87 0 12.08-9.793 21.871-21.875 21.871-12.08 0-21.875-9.792-21.875-21.87 0-12.079 9.794-21.87 21.875-21.87Zm0 15.622a6.25 6.25 0 1 0 0 12.497 6.25 6.25 0 1 0 0-12.497Zm-168.058 76.824c8.153 12.757 21.266 27.258 41 37.846 7.87 4.222 16.79 7.681 26.805 10.085 8.641 2.073 18.115 3.102 28.378 3.34 5.971-.122 11.676-.467 17.09-1.284 14.667-2.212 27.297-6.614 38.013-12.321 19.737-10.512 32.892-24.956 41.08-37.666a3.051 3.051 0 0 0-4.866-3.68c-9.113 10.33-23.004 21.265-42.08 28.423-5.931 2.226-12.358 3.955-19.322 5.333-9.04 1.79-18.964 2.8-29.915 2.454-8.985.21-17.273-.53-24.956-1.756-8.872-1.415-16.906-3.471-24.2-6.211-19.065-7.163-33.013-17.95-42.16-28.243a3.051 3.051 0 0 0-4.866 3.68Zm-52.321 116.049a3.124 3.124 0 0 1-3.496-1.06c-31.701-41.889-67.263-123.077-15.643-123.077 6.538 0 14.137 2.27 22.045 5.8a3.122 3.122 0 0 1 1.845 2.849c.003 13.968.003 96.689.003 111.671 0 1.37-.892 2.579-2.2 2.984-.857.267-1.708.544-2.554.833Zm297.008 0a97.45 97.45 0 0 0-2.554-.833 3.122 3.122 0 0 1-2.2-2.984c0-14.982 0-97.703.004-111.671 0-1.23.721-2.345 1.843-2.849 7.91-3.53 15.51-5.8 22.047-5.8 51.62 0 16.057 81.188-15.644 123.077a3.125 3.125 0 0 1-3.496 1.06Z"/><path fill-rule="nonzero" d="M25.334 464.48H53.06c6.055 0 10.543-1.673 13.464-5.02 2.921-3.345 4.382-7.25 4.382-11.71 0-4.462-1.488-8.392-4.462-11.792-2.974-3.399-7.436-5.098-13.384-5.098H25.334v33.62Zm0 22.785v31.548H.478V407.278h52.58c7.118 0 13.359 1.062 18.723 3.187 5.364 2.124 9.826 5.019 13.384 8.684 3.559 3.664 6.214 7.913 7.967 12.746 1.753 4.834 2.629 9.959 2.629 15.376 0 5.524-.903 10.702-2.709 15.536-1.806 4.833-4.488 9.055-8.046 12.667-3.559 3.611-7.994 6.453-13.305 8.524-5.311 2.072-11.525 3.16-18.642 3.267H25.334Zm108.668-.319c.53 3.824 2.602 7.09 6.214 9.8 3.611 2.708 8.657 4.062 15.137 4.062 3.08 0 6.559-.425 10.436-1.274 3.877-.85 7.197-2.497 9.959-4.94l12.906 14.34c-4.249 4.143-9.454 7.117-15.615 8.923s-12.216 2.709-18.164 2.709c-7.117 0-13.411-1.01-18.882-3.027-5.47-2.019-10.09-4.86-13.862-8.525-3.77-3.665-6.612-8.073-8.524-13.225-1.912-5.152-2.868-10.861-2.868-17.128 0-5.949.982-11.42 2.947-16.412 1.965-4.993 4.754-9.295 8.365-12.906 3.612-3.612 7.994-6.4 13.146-8.365 5.152-1.966 10.914-2.948 17.288-2.948 6.692 0 12.747 1.036 18.164 3.107 5.417 2.071 9.905 5.152 13.464 9.241 3.558 4.09 6.055 9.189 7.489 15.297 1.434 6.108 1.513 13.198.239 21.271H134Zm37.284-16.73c-.106-2.125-.69-3.984-1.752-5.577-1.063-1.593-2.47-2.921-4.223-3.983-1.752-1.063-3.718-1.833-5.895-2.31-2.178-.479-4.488-.718-6.931-.718-4.674 0-8.631 1.116-11.87 3.346-3.24 2.231-5.445 5.311-6.613 9.242h37.284Zm88.432 29.636c5.948 0 10.649-1.885 14.101-5.656 3.452-3.771 5.179-8.63 5.179-14.58 0-5.736-1.674-10.542-5.02-14.42-3.346-3.877-8.1-5.815-14.26-5.815-2.55 0-5.099.345-7.648 1.036-2.55.69-4.833 1.832-6.852 3.425-2.018 1.594-3.638 3.692-4.86 6.294-1.221 2.603-1.832 5.763-1.832 9.48 0 3.294.61 6.215 1.833 8.764 1.221 2.55 2.841 4.674 4.86 6.374a20.86 20.86 0 0 0 6.771 3.824 23.818 23.818 0 0 0 7.728 1.274Zm-44.614 53.697V440.26h20.554l1.434 10.038c3.718-4.78 7.754-7.887 12.11-9.321 4.355-1.434 9.029-2.151 14.021-2.151 5.736 0 10.994.982 15.775 2.947 4.78 1.965 8.896 4.727 12.348 8.286 3.452 3.558 6.108 7.834 7.967 12.826 1.859 4.993 2.788 10.57 2.788 16.73 0 6.374-.956 12.084-2.868 17.13-1.912 5.045-4.594 9.347-8.046 12.905-3.453 3.559-7.595 6.268-12.428 8.127-4.834 1.858-10.118 2.788-15.854 2.788-4.143 0-8.445-.823-12.907-2.47-4.461-1.646-8.391-4.54-11.79-8.684v44.137h-23.104Zm154.556-53.697c5.948 0 10.649-1.885 14.101-5.656 3.452-3.771 5.178-8.63 5.178-14.58 0-5.736-1.673-10.542-5.019-14.42-3.346-3.877-8.1-5.815-14.26-5.815-2.55 0-5.099.345-7.648 1.036-2.55.69-4.834 1.832-6.852 3.425-2.018 1.594-3.638 3.692-4.86 6.294-1.221 2.603-1.832 5.763-1.832 9.48 0 3.294.61 6.215 1.832 8.764 1.222 2.55 2.842 4.674 4.86 6.374a20.86 20.86 0 0 0 6.772 3.824 23.818 23.818 0 0 0 7.728 1.274Zm-44.614 53.697V440.26H345.6l1.434 10.038c3.718-4.78 7.754-7.887 12.11-9.321 4.355-1.434 9.029-2.151 14.021-2.151 5.736 0 10.994.982 15.774 2.947 4.78 1.965 8.897 4.727 12.349 8.286 3.452 3.558 6.108 7.834 7.967 12.826 1.859 4.993 2.788 10.57 2.788 16.73 0 6.374-.956 12.084-2.868 17.13-1.912 5.045-4.594 9.347-8.046 12.905-3.453 3.559-7.595 6.268-12.429 8.127-4.833 1.858-10.117 2.788-15.854 2.788-4.142 0-8.444-.823-12.906-2.47-4.461-1.646-8.391-4.54-11.79-8.684v44.137h-23.104Zm128.743-66.603c.531 3.824 2.603 7.09 6.214 9.8 3.612 2.708 8.658 4.062 15.137 4.062 3.08 0 6.56-.425 10.437-1.274 3.877-.85 7.196-2.497 9.958-4.94l12.907 14.34c-4.25 4.143-9.454 7.117-15.615 8.923s-12.216 2.709-18.165 2.709c-7.117 0-13.41-1.01-18.881-3.027-5.47-2.019-10.091-4.86-13.862-8.525-3.771-3.665-6.613-8.073-8.525-13.225-1.912-5.152-2.868-10.861-2.868-17.128 0-5.949.983-11.42 2.948-16.412 1.965-4.993 4.753-9.295 8.365-12.906 3.612-3.612 7.993-6.4 13.145-8.365 5.152-1.966 10.915-2.948 17.288-2.948 6.692 0 12.747 1.036 18.165 3.107 5.417 2.071 9.905 5.152 13.463 9.241 3.559 4.09 6.055 9.189 7.49 15.297 1.433 6.108 1.513 13.198.238 21.271H453.79Zm37.285-16.73c-.106-2.125-.69-3.984-1.753-5.577-1.062-1.593-2.47-2.921-4.222-3.983-1.753-1.063-3.718-1.833-5.896-2.31-2.177-.479-4.488-.718-6.93-.718-4.675 0-8.631 1.116-11.871 3.346-3.24 2.231-5.444 5.311-6.613 9.242h37.285Zm65.168-29.955 1.753 8.604c2.656-3.718 5.71-6.4 9.162-8.047 3.452-1.646 7.409-2.47 11.87-2.47 7.436 0 13.863 2.39 19.28 7.17l-9.56 18.165c-3.718-2.656-7.914-3.983-12.588-3.983-4.886 0-9.161 1.54-12.826 4.62-3.665 3.08-5.497 7.595-5.497 13.544v40.95H534.89V440.26h21.351Zm81.9-.32v78.872h-22.945v-78.871h22.944Zm-24.539-20.713c0 4.25 1.355 7.462 4.063 9.64 2.71 2.178 5.71 3.266 9.003 3.266s6.294-1.088 9.002-3.266c2.71-2.178 4.063-5.39 4.063-9.64 0-4.355-1.354-7.595-4.063-9.72-2.708-2.124-5.71-3.186-9.002-3.186-3.293 0-6.294 1.062-9.003 3.187-2.708 2.124-4.063 5.364-4.063 9.72Z"/></g></svg>