<svg xmlns="http://www.w3.org/2000/svg" viewBox="0 0 362 64"><g fill="#83B30C" fill-rule="evenodd"><path d="M18 42v8.5c3.53.926 6 3.042 6 5.5l-10 4-10-4c0-2.458 2.47-4.574 6-5.5V17c0-6.071 4.929-11 11-11 2.658 0 5.097.945 7 2.517.4.33.775.687 1.124 1.07.991.986 1.817 1.813 2.876 1.813 1.06 0 1.884-.825 2.873-1.81.35-.384.727-.743 1.129-1.074A10.95 10.95 0 0 1 43 6c6.071 0 11 4.929 11 11v33.5c3.53.926 6 3.042 6 5.5l-10 4-10-4c0-2.458 2.47-4.574 6-5.5v-2.464l-.014.003v-6.023c0-.67-.538-1.216-1.2-1.216-.663 0-1.2.545-1.2 1.216l-.254 6.865c-1.126.474-2.115 1.058-2.922 1.718-1.206.988-2.043 2.15-2.473 3.4H26.063c-.43-1.25-1.267-2.412-2.474-3.4-.81-.662-1.802-1.248-2.932-1.722L20.4 42a1.2 1.2 0 0 0-2.4 0Zm3-31.4a6.403 6.403 0 0 0-6.4 6.4c0 3.532 2.868 6.4 6.4 6.4 3.532 0 6.4-2.868 6.4-6.4 0-3.532-2.868-6.4-6.4-6.4Zm0 3.4a3.001 3.001 0 1 1-3 3c0-1.655 1.344-3 3-3Zm22-3.4a6.403 6.403 0 0 0-6.4 6.4c0 3.532 2.867 6.4 6.4 6.4 3.532 0 6.4-2.868 6.4-6.4 0-3.532-2.868-6.4-6.4-6.4Zm0 3.4c1.655 0 3 1.345 3 3a3.001 3.001 0 1 1-3-3ZM16.312 29.549s2.758 2.805 7.119 4.882a22.271 22.271 0 0 0 4.135 1.496c1.4.352 2.892.542 4.434.572a18.36 18.36 0 0 0 2.686-.218c2.152-.35 4.141-1.04 5.879-1.863 4.36-2.067 7.122-4.87 7.122-4.87a.734.734 0 1 0-.975-1.097s-2.873 2.204-7.088 3.695c-.949.336-1.964.624-3.03.862-1.448.323-2.988.53-4.594.493-1.325.025-2.606-.121-3.827-.349a25.24 25.24 0 0 1-3.791-1.018c-4.215-1.495-7.094-3.683-7.094-3.683a.735.735 0 0 0-.976 1.098ZM6.136 49.453C2.62 47.352 0 39.435 0 30c0-2.208 1.792-4 4-4 2.207 0 4 1.792 4 4v18.62c-.665.242-1.289.522-1.864.833ZM56 48.62V30c0-2.208 1.793-4 4-4C62.209 26 64 27.792 64 30c0 9.435-2.619 17.352-6.136 19.453a13.924 13.924 0 0 0-1.865-.833ZM85.762 32.566h10.889c2.378 0 4.14-.66 5.288-1.98 1.147-1.32 1.72-2.86 1.72-4.62 0-1.76-.583-3.31-1.751-4.652-1.169-1.34-2.92-2.011-5.257-2.011H85.762v13.263Zm0 8.988V54H76V10h20.65c2.796 0 5.247.419 7.354 1.257 2.107.838 3.859 1.98 5.257 3.426a13.984 13.984 0 0 1 3.128 5.028c.689 1.907 1.033 3.929 1.033 6.066 0 2.18-.355 4.222-1.064 6.129a14.04 14.04 0 0 1-3.16 4.997c-1.398 1.425-3.14 2.546-5.225 3.363-2.086.817-4.527 1.246-7.322 1.288H85.762ZM156.03 54h-33.354V10h32.478v8.989H132.25v8.485h21.59v8.612h-21.59v8.863h23.78V54Zm20.393-21.434h10.889c2.378 0 4.14-.66 5.288-1.98 1.147-1.32 1.72-2.86 1.72-4.62 0-1.76-.584-3.31-1.752-4.652-1.168-1.34-2.92-2.011-5.256-2.011h-10.889v13.263Zm0 8.988V54h-9.762V10h20.65c2.796 0 5.247.419 7.354 1.257 2.107.838 3.859 1.98 5.256 3.426a13.984 13.984 0 0 1 3.13 5.028c.688 1.907 1.032 3.929 1.032 6.066 0 2.18-.355 4.222-1.064 6.129a14.04 14.04 0 0 1-3.16 4.997c-1.398 1.425-3.14 2.546-5.226 3.363-2.086.817-4.526 1.246-7.321 1.288h-10.889Zm46.676-8.988h10.889c2.378 0 4.14-.66 5.287-1.98 1.148-1.32 1.721-2.86 1.721-4.62 0-1.76-.584-3.31-1.752-4.652-1.168-1.34-2.92-2.011-5.256-2.011h-10.89v13.263Zm0 8.988V54h-9.762V10h20.65c2.796 0 5.247.419 7.354 1.257 2.106.838 3.859 1.98 5.256 3.426a13.984 13.984 0 0 1 3.13 5.028c.687 1.907 1.032 3.929 1.032 6.066 0 2.18-.355 4.222-1.064 6.129a14.04 14.04 0 0 1-3.16 4.997c-1.398 1.425-3.14 2.546-5.226 3.363-2.086.817-4.526 1.246-7.321 1.288h-10.89ZM293.367 54h-33.355V10h32.479v8.989h-22.904v8.485h21.59v8.612h-21.59v8.863h23.78V54Zm49.492 0h-10.826L320.83 39.543h-7.071V54h-9.763V10h20.777c2.628 0 4.954.409 6.977 1.226 2.023.817 3.723 1.917 5.1 3.3a13.631 13.631 0 0 1 3.098 4.745 15.298 15.298 0 0 1 1.032 5.563 20.88 20.88 0 0 1-.406 4.149 10.98 10.98 0 0 1-1.534 3.771c-.75 1.174-1.783 2.263-3.097 3.269-1.314 1.006-3.014 1.886-5.1 2.64l12.015 14.583V54Zm-29.1-35.577v12.823h11.14c1.126 0 2.096-.189 2.91-.566.813-.377 1.48-.87 2.002-1.477a6.085 6.085 0 0 0 1.158-2.012c.25-.733.375-1.435.375-2.105 0-.755-.135-1.53-.406-2.326a6.696 6.696 0 0 0-1.19-2.137c-.521-.629-1.199-1.153-2.033-1.572-.835-.419-1.815-.628-2.941-.628H313.76ZM352.3 54V10h9.7v44h-9.7Z"/></g></svg>